<svg xmlns="http://www.w3.org/2000/svg" version="1.1" xmlns:xlink="http://www.w3.org/1999/xlink" width="320.00012" height="490.81094"><svg width="320.00012" height="490.81094" viewBox="0 0 320.00012 490.81094" version="1.1" xml:space="preserve" style="clip-rule:evenodd;fill-rule:evenodd;stroke-linejoin:round;stroke-miterlimit:2" id="SvgjsSvg1061" sodipodi:docname="DAL favicon.svg" inkscape:version="1.4.2 (ebf0e940, 2025-05-08)" xmlns:inkscape="http://www.inkscape.org/namespaces/inkscape" xmlns:sodipodi="http://sodipodi.sourceforge.net/DTD/sodipodi-0.dtd" xmlns="http://www.w3.org/2000/svg" xmlns:svg="http://www.w3.org/2000/svg"><defs id="SvgjsDefs1060"></defs><sodipodi:namedview id="SvgjsSodipodi:namedview1059" pagecolor="#ffffff" bordercolor="#000000" borderopacity="0.25" inkscape:showpageshadow="2" inkscape:pageopacity="0.0" inkscape:pagecheckerboard="0" inkscape:deskcolor="#d1d1d1" inkscape:zoom="0.052953157" inkscape:cx="141.63462" inkscape:cy="245.5" inkscape:window-width="896" inkscape:window-height="245" inkscape:window-x="0" inkscape:window-y="38" inkscape:window-maximized="0" inkscape:current-layer="svg8"></sodipodi:namedview>
    <g transform="matrix(0.535687,0,0,0.535687,-269.09058,-5.6081286)" id="SvgjsG1058">
        <g id="SvgjsG1057">
            <g transform="translate(12,-4)" id="SvgjsG1056">
                <g transform="matrix(5.3336,0,0,4.01854,-363.048,-2300.21)" id="SvgjsG1055">
                    <path d="M 272,608.141 V 789.135 C 272,797.339 266.981,804 260.8,804 H 171.2 C 165.019,804 160,797.339 160,789.135 V 590.865 C 160,582.661 165.019,576 171.2,576 h 76.584 z" style="fill:#40c1ac" id="SvgjsPath1054"></path>
                </g>
                <g transform="matrix(0.75,0,0,0.75,424.509,-84.7571)" id="SvgjsG1053">
                    <path d="M 712.031,132.305 V 304.518 H 884.244 Z" style="fill:#ffffff;fill-opacity:0.5" id="SvgjsPath1052"></path>
                </g>
            </g>
            <g transform="matrix(4.03624,0,0,4.03624,-272.63,-2318.53)" id="SvgjsG1051">
                <path d="m 260,603 25,14 -1,44 12,9 v 20.522 l 12,1.5 -12,16.978 -9,14 -11,57 -12,1 -16,-55 -11,-18 -10,-13.978 10,-2 1,-76.022 z" style="fill:#f8f8ff" id="SvgjsPath1050"></path>
            </g>
            <g id="SvgjsG1049" transform="matrix(2.87708,0,0,2.87708,386.711,54.454)">
                <path d="m 139.8,46.92 c 0,-1.3 1.44,-2.09 2.53,-1.38 l 4.14,2.66 c 1.08,0.7 1.73,1.89 1.73,3.18 v 28.7 c 0,0.85 -0.94,1.36 -1.65,0.9 l -3.54,-2.28 c -2,-1.29 -3.21,-3.51 -3.21,-5.89 z" style="fill:#fdb714;fill-rule:nonzero" id="SvgjsPath1048"></path>
                <path d="m 143.7,89.14 18.23,11.74 c 1.92,1.23 3.07,3.36 3.07,5.64 v 26.81 c 0,3.13 -2.54,5.66 -5.66,5.66 h -13.88 c -3.13,0 -5.66,-2.54 -5.66,-5.66 V 91.27 c 0,-2.01 2.22,-3.22 3.91,-2.13 z" style="fill:#fdb714;fill-rule:nonzero" id="SvgjsPath1047"></path>
                <path d="m 106.19,43.88 c 0,-2.32 1.18,-4.49 3.13,-5.75 l 18.74,-12.07 c 1.44,-0.93 3.34,0.11 3.34,1.82 v 26.27 c 0,2.02 -1.02,3.89 -2.72,4.98 L 119,65.37 c -2.72,1.75 -4.37,4.77 -4.37,8.01 v 61.39 c 0,2.33 -1.89,4.22 -4.22,4.22 -2.33,0 -4.22,-1.89 -4.22,-4.22 z" style="fill:#fdb714;fill-rule:nonzero" id="SvgjsPath1046"></path>
                <path d="m 200.06,138.99 h -5.64 c -2.32,0 -4.2,-1.88 -4.2,-4.2 v -20.61 c 0,-3.16 -1.61,-6.11 -4.27,-7.82 l -8.62,-5.55 c -2.44,-1.57 -3.92,-4.28 -3.92,-7.19 V 40.41 c 0,-3.02 -1.53,-5.82 -4.07,-7.46 L 138.8,13.28 c -1.95,-1.26 -4.46,-1.26 -6.41,0 l -30.32,19.53 c -2.67,1.72 -4.29,4.68 -4.29,7.86 v 94.12 c 0,2.32 -1.88,4.2 -4.2,4.2 h -5.64 c -2.32,0 -4.2,1.88 -4.2,4.2 0,9.63 5.14,18.08 12.82,22.76 0.74,0.45 1.23,1.23 1.31,2.09 0.8,8.8 5.9,16.38 13.17,20.61 1.27,0.74 2.15,1.99 2.38,3.44 l 11.37,73.1 c 0.94,6.03 6.13,10.48 12.23,10.48 h 13.96 c 6.1,0 11.3,-4.45 12.23,-10.48 l 11.37,-73.1 c 0.23,-1.45 1.11,-2.7 2.38,-3.44 7.28,-4.23 12.37,-11.81 13.17,-20.61 0.08,-0.86 0.56,-1.64 1.3,-2.09 7.69,-4.68 12.84,-13.15 12.83,-22.79 0,-2.31 -1.89,-4.17 -4.2,-4.17 z m -26.65,-26.62 c 0,-1.77 1.96,-2.83 3.44,-1.88 l 2.4,1.55 c 1.59,1.03 2.56,2.79 2.56,4.69 v 18.06 c 0,2.31 -1.89,4.2 -4.2,4.2 h -0.02 c -2.31,0 -4.18,-1.87 -4.18,-4.18 z m -50.38,22.46 V 77.47 c 0,-2.93 1.49,-5.66 3.95,-7.24 l 1.74,-1.12 c 1.16,-0.74 2.68,0.09 2.68,1.46 v 64.24 c 0,2.3 -1.88,4.18 -4.18,4.18 h -0.02 c -2.3,0 -4.16,-1.86 -4.16,-4.16 z M 139.8,26.74 c 0,-1.22 1.35,-1.95 2.37,-1.29 l 20.64,13.29 c 1.37,0.88 2.2,2.4 2.2,4.03 v 48.25 c 0,0.8 -0.88,1.28 -1.55,0.85 l -3.49,-2.25 c -2.1,-1.35 -3.36,-3.67 -3.36,-6.17 V 49.76 c 0,-3.14 -1.59,-6.06 -4.23,-7.75 l -10.43,-6.72 c -1.34,-0.86 -2.14,-2.34 -2.14,-3.93 v -4.62 z m 0,20.18 c 0,-1.3 1.44,-2.09 2.53,-1.38 l 4.14,2.66 c 1.08,0.7 1.73,1.89 1.73,3.18 v 28.7 c 0,0.85 -0.94,1.36 -1.65,0.9 l -3.54,-2.28 c -2,-1.29 -3.21,-3.51 -3.21,-5.89 z m 0,44.35 c 0,-2.01 2.22,-3.22 3.91,-2.13 l 18.23,11.74 c 1.92,1.23 3.07,3.36 3.07,5.64 v 26.81 c 0,3.12 -2.53,5.65 -5.64,5.66 h -13.92 c -3.12,-0.01 -5.64,-2.54 -5.64,-5.66 V 91.27 Z m -33.61,43.52 V 43.88 c 0,-2.32 1.18,-4.49 3.13,-5.75 l 18.74,-12.07 c 1.44,-0.93 3.34,0.11 3.34,1.82 v 26.27 c 0,2.02 -1.02,3.89 -2.72,4.98 L 119,65.37 c -2.72,1.75 -4.37,4.77 -4.37,8.01 v 61.39 c 0,2.32 -1.9,4.22 -4.22,4.22 h -0.02 c -2.32,0 -4.2,-1.88 -4.2,-4.2 z m 59.05,62.66 -10.1,64.92 c -0.41,2.62 -2.54,4.7 -5.19,4.87 -3.25,0.2 -5.95,-2.37 -5.95,-5.58 v -56.62 c 0,-7.07 5.73,-12.8 12.8,-12.8 0,0 1.86,0 3.92,-0.03 2.8,-0.02 4.95,2.47 4.52,5.24 z m 14.77,-23.89 c -2.96,6.08 -9.19,10.28 -16.39,10.28 h -39.24 c -7.2,0 -13.43,-4.2 -16.39,-10.28 -0.84,-1.73 0.45,-3.74 2.37,-3.74 h 67.27 c 1.92,0 3.21,2.01 2.37,3.74 z m 13.74,-21.89 c -3.06,5.78 -9.14,9.73 -16.12,9.73 h -67.27 c -6.98,0 -13.06,-3.95 -16.12,-9.73 -1.03,-1.94 0.41,-4.28 2.61,-4.28 h 94.29 c 2.2,0 3.63,2.34 2.61,4.28 z" style="fill:#172a47;fill-rule:nonzero" id="SvgjsPath1045"></path>
            </g>
        </g>
    </g>
</svg><style>@media (prefers-color-scheme: light) { :root { filter: none; } }
@media (prefers-color-scheme: dark) { :root { filter: none; } }
</style></svg>