<?xml version="1.0" standalone="no"?>
<!DOCTYPE svg PUBLIC "-//W3C//DTD SVG 20010904//EN"
 "http://www.w3.org/TR/2001/REC-SVG-20010904/DTD/svg10.dtd">
<svg version="1.0" xmlns="http://www.w3.org/2000/svg"
 width="500.000000pt" height="500.000000pt" viewBox="0 0 500.000000 500.000000"
 preserveAspectRatio="xMidYMid meet">
<metadata>
Created by potrace 1.14, written by Peter Selinger 2001-2017
</metadata>
<g transform="translate(0.000000,500.000000) scale(0.100000,-0.100000)"
fill="#000000" stroke="none">
<path d="M0 2500 l0 -2500 2500 0 2500 0 0 2500 0 2500 -2500 0 -2500 0 0
-2500z m1480 285 l0 -1134 320 6 320 6 0 -291 0 -292 -338 0 c-186 0 -461 -3
-610 -7 l-272 -6 0 1426 0 1427 290 0 290 0 0 -1135z m2710 845 l0 -290 -140
0 -140 0 0 -1135 0 -1135 -285 0 -285 0 -2 1133 -3 1132 -807 -4 -808 -4 0
291 0 292 898 2 c493 2 1049 4 1235 6 l337 2 0 -290z m-1500 -586 c64 -93 86
-144 103 -225 l13 -63 33 59 c19 33 47 94 62 135 15 41 29 68 32 60 2 -8 33
-103 68 -210 58 -177 64 -203 64 -280 0 -98 -19 -144 -99 -242 -66 -79 -80
-81 -55 -10 11 32 21 88 22 127 2 76 -10 165 -22 165 -4 0 -17 -18 -30 -40
-26 -46 -69 -100 -80 -100 -5 0 -11 23 -14 51 -4 28 -17 75 -31 104 -23 52
-104 145 -126 145 -5 0 -10 -20 -10 -45 0 -24 -11 -79 -25 -121 -14 -42 -25
-92 -25 -110 0 -19 -5 -34 -10 -34 -18 0 -98 80 -131 132 -38 58 -38 58 -63
-66 -23 -107 -20 -162 9 -224 l25 -53 -28 20 c-130 94 -184 244 -153 427 12
67 62 229 96 309 l18 40 12 -42 c11 -38 92 -161 106 -162 11 -1 66 123 83 189
9 36 29 100 44 144 l26 78 18 -40 c9 -23 40 -76 68 -118z m240 -1169 l0 -215
85 0 85 0 0 -290 0 -290 -202 0 c-112 0 -281 -3 -375 -7 l-173 -6 0 511 0 512
290 0 290 0 0 -215z"/>
</g>
</svg>
